<svg width="88" height="88" viewBox="0 0 88 88" fill="none" xmlns="http://www.w3.org/2000/svg">
<circle cx="44.0003" cy="34.2728" r="7.27279" stroke="black" stroke-width="3.5"/>
<path d="M54.9092 39.7275C57.9217 39.7275 60.3638 37.6924 60.3638 35.182C60.3638 32.6716 57.9217 30.6365 54.9092 30.6365" stroke="#BDBDBD" stroke-width="3.5" stroke-linecap="round"/>
<path d="M33.0908 39.7275C30.0783 39.7275 27.6362 37.6924 27.6362 35.182C27.6362 32.6716 30.0783 30.6365 33.0908 30.6365" stroke="#BDBDBD" stroke-width="3.5" stroke-linecap="round"/>
<ellipse cx="44" cy="54.273" rx="10.9092" ry="7.27279" stroke="black" stroke-width="3.5"/>
<path d="M58.5449 57.9093C61.7345 57.2099 63.9995 55.4385 63.9995 53.3639C63.9995 51.2892 61.7345 49.5178 58.5449 48.8184" stroke="#BDBDBD" stroke-width="3.5" stroke-linecap="round"/>
<path d="M29.4541 57.9093C26.2645 57.2099 23.9995 55.4385 23.9995 53.3639C23.9995 51.2892 26.2645 49.5178 29.4541 48.8184" stroke="#BDBDBD" stroke-width="3.5" stroke-linecap="round"/>
</svg>
